<svg xmlns="http://www.w3.org/2000/svg" version="1.1" width="24" height="24" viewBox="0 0 24 24"><path fill="#fff" d="M12 2A10 10 0 0 0 2 12C2 16.4 4.9 20.2 8.8 21.5 9.3 21.6 9.5 21.3 9.5 21 9.5 20.8 9.5 20.1 9.5 19.3 6.7 19.9 6.1 18 6.1 18 5.7 16.8 5 16.5 5 16.5 4.1 15.9 5.1 15.9 5.1 15.9 6.1 16 6.6 16.9 6.6 16.9 7.5 18.5 9 18 9.5 17.8 9.6 17.1 9.9 16.7 10.2 16.4 8 16.2 5.6 15.3 5.6 11.5 5.6 10.4 6 9.5 6.7 8.8 6.6 8.5 6.2 7.5 6.8 6.2 6.8 6.2 7.6 5.9 9.5 7.2 10.3 7 11.2 6.8 12 6.8 12.9 6.8 13.7 7 14.5 7.2 16.4 5.9 17.3 6.2 17.3 6.2 17.8 7.5 17.5 8.5 17.4 8.8 18 9.5 18.4 10.4 18.4 11.5 18.4 15.3 16 16.2 13.8 16.4 14.2 16.7 14.5 17.3 14.5 18.3 14.5 19.6 14.5 20.7 14.5 21 14.5 21.3 14.7 21.6 15.2 21.5 19.1 20.2 22 16.4 22 12A10 10 0 0 0 12 2Z"/></svg>